{
    "asset" : {
        "generator" : "Khronos glTF Blender I/O v1.7.33",
        "version" : "2.0"
    },
    "scene" : 0,
    "scenes" : [
        {
            "name" : "Scene",
            "nodes" : [
                0
            ]
        }
    ],
    "nodes" : [
        {
            "mesh" : 0,
            "name" : "Cube.001"
        }
    ],
    "materials" : [
        {
            "doubleSided" : true,
            "name" : "Material.002",
            "pbrMetallicRoughness" : {}
        },
        {
            "doubleSided" : true,
            "name" : "Material.001",
            "pbrMetallicRoughness" : {}
        }
    ],
    "meshes" : [
        {
            "name" : "Cube.001",
            "primitives" : [
                {
                    "attributes" : {
                        "POSITION" : 0,
                        "NORMAL" : 1
                    },
                    "indices" : 2,
                    "material" : 0
                },
                {
                    "attributes" : {
                        "POSITION" : 3,
                        "NORMAL" : 4
                    },
                    "indices" : 5,
                    "material" : 1
                }
            ]
        }
    ],
    "accessors" : [
        {
            "bufferView" : 0,
            "componentType" : 5126,
            "count" : 3557,
            "max" : [
                1.000000238418579,
                1,
                1.000000238418579
            ],
            "min" : [
                -1.0000001192092896,
                -1,
                -1.000000238418579
            ],
            "type" : "VEC3"
        },
        {
            "bufferView" : 1,
            "componentType" : 5126,
            "count" : 3557,
            "type" : "VEC3"
        },
        {
            "bufferView" : 2,
            "componentType" : 5123,
            "count" : 20448,
            "type" : "SCALAR"
        },
        {
            "bufferView" : 3,
            "componentType" : 5126,
            "count" : 3213,
            "max" : [
                0.9953128099441528,
                0.9953125715255737,
                0.9953128695487976
            ],
            "min" : [
                -0.9953126907348633,
                -0.9953125715255737,
                -0.9953128099441528
            ],
            "type" : "VEC3"
        },
        {
            "bufferView" : 4,
            "componentType" : 5126,
            "count" : 3213,
            "type" : "VEC3"
        },
        {
            "bufferView" : 5,
            "componentType" : 5123,
            "count" : 18144,
            "type" : "SCALAR"
        }
    ],
    "bufferViews" : [
        {
            "buffer" : 0,
            "byteLength" : 42684,
            "byteOffset" : 0
        },
        {
            "buffer" : 0,
            "byteLength" : 42684,
            "byteOffset" : 42684
        },
        {
            "buffer" : 0,
            "byteLength" : 40896,
            "byteOffset" : 85368
        },
        {
            "buffer" : 0,
            "byteLength" : 38556,
            "byteOffset" : 126264
        },
        {
            "buffer" : 0,
            "byteLength" : 38556,
            "byteOffset" : 164820
        },
        {
            "buffer" : 0,
            "byteLength" : 36288,
            "byteOffset" : 203376
        }
    ],
    "buffers" : [
        {
            "byteLength" : 239664,
            "uri" : "data:application/octet-stream;base64,"
        }
    ]
}
